<svg xmlns="http://www.w3.org/2000/svg" viewBox="0 0 120 72" role="img" aria-label="Australia flag">
  <rect width="120" height="72" fill="#012169"/>
  <g transform="scale(.5)">
    <path fill="#fff" d="M0 0h120v72H0z"/>
    <path stroke="#012169" stroke-width="12" d="m0 0 120 72M120 0 0 72"/>
    <path stroke="#c8102e" stroke-width="7" d="m0 0 120 72M120 0 0 72"/>
    <path fill="#012169" d="M50 0h20v72H50zM0 26h120v20H0z"/>
    <path fill="#fff" d="M56 0h8v72h-8zM0 32h120v8H0z"/>
    <path fill="#c8102e" d="M58 0h4v72h-4zM0 34h120v4H0z"/>
  </g>
  <g fill="#fff">
    <path d="m30 45 2.2 6.7 7 .1-5.6 4.1 2.1 6.8-5.7-4-5.7 4 2.1-6.8-5.6-4.1 7-.1z"/>
    <path d="m83 15 1.4 4.3h4.5l-3.6 2.7 1.3 4.4-3.6-2.6-3.7 2.6 1.4-4.4-3.6-2.7h4.5z"/>
    <path d="m98 28 1.4 4.3h4.5l-3.6 2.7 1.3 4.4-3.6-2.6-3.7 2.6 1.4-4.4-3.6-2.7h4.5z"/>
    <path d="m83 49 1.4 4.3h4.5L85.3 56l1.3 4.4-3.6-2.6-3.7 2.6 1.4-4.4-3.6-2.7h4.5z"/>
    <path d="m108 44 1 3h3.1l-2.5 1.8 1 3-2.6-1.8-2.6 1.8 1-3-2.5-1.8h3.1z"/>
  </g>
</svg>
